<svg xmlns="http://www.w3.org/2000/svg" xmlns:xlink="http://www.w3.org/1999/xlink" width="25px" height="25px">
<path d="M23.784,22.594 L17.972,16.512 C19.466,14.725 20.285,12.476 20.285,10.135 C20.285,4.666 15.861,0.216 10.425,0.216 C4.988,0.216 0.564,4.666 0.564,10.135 C0.564,15.605 4.988,20.055 10.425,20.055 C12.466,20.055 14.411,19.435 16.074,18.260 L21.930,24.387 C22.175,24.643 22.504,24.784 22.857,24.784 C23.191,24.784 23.508,24.656 23.748,24.423 C24.259,23.929 24.276,23.108 23.784,22.594 ZM10.425,2.804 C14.443,2.804 17.713,6.092 17.713,10.135 C17.713,14.178 14.443,17.467 10.425,17.467 C6.406,17.467 3.137,14.178 3.137,10.135 C3.137,6.092 6.406,2.804 10.425,2.804 Z"/>
</svg>