<svg 
 xmlns="http://www.w3.org/2000/svg"
 xmlns:xlink="http://www.w3.org/1999/xlink"
 width="82px" height="82px">
<path fill-rule="evenodd"  opacity="0.502" fill="rgb(0, 92, 161)"
 d="M79.288,81.383 L71.946,81.383 L55.916,81.383 L1.832,81.383 C0.818,81.383 -0.003,80.561 -0.003,79.547 L-0.003,25.953 C-0.003,25.310 0.333,24.714 0.883,24.381 C1.433,24.049 2.117,24.028 2.687,24.328 L19.360,33.100 L19.360,25.953 C19.360,25.310 19.697,24.714 20.247,24.381 C20.797,24.049 21.481,24.028 22.050,24.328 L38.724,33.100 L38.724,25.953 C38.724,25.310 39.061,24.714 39.611,24.381 C40.161,24.049 40.845,24.028 41.414,24.328 L80.142,44.702 C80.745,45.019 81.123,45.644 81.123,46.326 L81.123,79.547 C81.123,80.561 80.301,81.383 79.288,81.383 ZM57.752,77.712 L70.110,77.712 L70.110,55.503 L57.752,55.503 L57.752,77.712 ZM77.452,47.434 L42.395,28.992 L42.395,36.139 C42.395,36.782 42.059,37.378 41.508,37.711 C40.958,38.043 40.274,38.063 39.705,37.764 L23.031,28.992 L23.031,36.139 C23.031,36.782 22.695,37.378 22.145,37.711 C21.594,38.043 20.911,38.063 20.341,37.764 L3.667,28.992 L3.667,77.712 L54.081,77.712 L54.081,53.668 C54.081,52.654 54.903,51.832 55.916,51.832 L71.946,51.832 C72.959,51.832 73.781,52.654 73.781,53.668 L73.781,77.712 L77.452,77.712 L77.452,47.434 ZM48.575,69.269 L9.174,69.269 C8.160,69.269 7.338,68.447 7.338,67.433 L7.338,53.668 C7.338,52.654 8.160,51.832 9.174,51.832 L48.575,51.832 C49.588,51.832 50.410,52.654 50.410,53.668 L50.410,67.433 C50.410,68.447 49.588,69.269 48.575,69.269 ZM30.028,55.503 L22.306,63.225 C21.948,63.584 21.478,63.763 21.008,63.763 C20.539,63.763 20.069,63.584 19.710,63.225 C18.994,62.508 18.994,61.346 19.710,60.629 L24.837,55.503 L11.009,55.503 L11.009,65.598 L27.720,65.598 L37.815,55.503 L30.028,55.503 ZM46.739,55.503 L43.007,55.503 L32.912,65.598 L46.739,65.598 L46.739,55.503 ZM77.457,40.929 C77.428,40.930 77.398,40.931 77.369,40.931 C76.395,40.931 75.584,40.165 75.537,39.183 L73.866,3.927 L66.353,3.927 L65.007,31.716 C64.958,32.728 64.091,33.504 63.085,33.460 C62.072,33.411 61.291,32.551 61.340,31.538 L62.771,2.003 C62.818,1.025 63.625,0.256 64.604,0.256 L75.617,0.256 C76.597,0.256 77.404,1.026 77.450,2.005 L79.204,39.009 C79.251,40.021 78.470,40.881 77.457,40.929 Z"/>
</svg>