<svg 
 xmlns="http://www.w3.org/2000/svg"
 xmlns:xlink="http://www.w3.org/1999/xlink"
 width="60px" height="75px">
<path fill-rule="evenodd" stroke-width="4px" stroke="rgb(0, 92, 161)" fill-opacity="0" opacity="0.502" fill="rgb(0, 0, 0)"
 d="M30.055,6.524 C17.290,6.524 6.904,16.920 6.904,29.697 C6.904,33.533 7.862,37.336 9.684,40.709 L28.789,68.194 C29.043,68.655 29.528,68.941 30.055,68.941 C30.582,68.941 31.066,68.655 31.321,68.194 L50.433,40.698 C52.247,37.336 53.205,33.533 53.205,29.697 C53.205,16.920 42.820,6.524 30.055,6.524 ZM30.055,41.284 C23.672,41.284 18.480,36.086 18.480,29.697 C18.480,23.309 23.672,18.111 30.055,18.111 C36.437,18.111 41.630,23.309 41.630,29.697 C41.630,36.086 36.437,41.284 30.055,41.284 Z"/>
</svg>