<svg 
 xmlns="http://www.w3.org/2000/svg"
 xmlns:xlink="http://www.w3.org/1999/xlink"
 width="87px" height="74px">
<path fill-rule="evenodd"  opacity="0.502" fill="rgb(0, 92, 161)"
 d="M84.749,62.684 L71.230,62.684 L71.230,71.743 C71.230,72.674 70.475,73.429 69.544,73.429 L50.348,73.429 C49.417,73.429 48.662,72.674 48.662,71.743 C48.662,70.812 49.417,70.057 50.348,70.057 L58.607,70.057 L58.607,58.635 C58.607,57.704 59.362,56.948 60.293,56.948 C61.225,56.948 61.980,57.704 61.980,58.635 L61.980,70.057 L67.858,70.057 L67.858,61.657 C67.771,61.454 67.724,61.231 67.724,60.997 C67.724,60.763 67.771,60.541 67.858,60.338 L67.858,58.456 C67.858,52.733 63.970,47.807 58.403,46.477 L50.133,44.502 L44.802,56.625 C44.533,57.237 43.927,57.633 43.259,57.633 L43.258,57.633 C42.590,57.633 41.984,57.237 41.715,56.625 L36.378,44.484 L28.085,46.472 C22.523,47.804 18.639,52.729 18.639,58.448 L18.639,70.057 L24.551,70.057 L24.551,58.635 C24.551,57.704 25.306,56.948 26.237,56.948 C27.169,56.948 27.924,57.704 27.924,58.635 L27.924,70.057 L35.452,70.057 C36.383,70.057 37.138,70.812 37.138,71.743 C37.138,72.674 36.383,73.429 35.452,73.429 L16.952,73.429 C16.021,73.429 15.266,72.674 15.266,71.743 L15.266,62.684 L1.782,62.684 C0.850,62.684 0.095,61.929 0.095,60.998 L0.095,49.662 C0.095,44.207 3.801,39.512 9.108,38.244 L14.733,36.900 L14.733,34.669 C11.610,32.696 9.531,29.215 9.531,25.256 L9.531,18.972 C9.531,12.835 14.524,7.842 20.661,7.842 C23.986,7.842 26.973,9.309 29.014,11.628 C30.791,5.423 36.515,0.869 43.283,0.869 L43.283,0.869 C50.040,0.869 55.756,5.409 57.543,11.598 C59.584,9.296 62.560,7.842 65.870,7.842 C72.007,7.842 77.000,12.835 77.000,18.972 L77.000,25.256 C77.000,29.215 74.921,32.696 71.798,34.669 L71.798,36.900 L77.424,38.244 C82.730,39.512 86.436,44.207 86.436,49.662 L86.436,60.998 C86.436,61.929 85.680,62.684 84.749,62.684 ZM65.855,44.487 L68.430,38.323 C68.428,38.292 68.426,38.262 68.426,38.231 L68.426,36.086 C67.605,36.280 66.750,36.386 65.870,36.386 C64.995,36.386 64.144,36.281 63.326,36.089 L63.326,38.172 C63.326,38.187 63.326,38.203 63.326,38.219 C63.326,38.281 63.322,38.342 63.315,38.404 L65.855,44.487 ZM59.187,43.197 C60.197,43.439 61.162,43.776 62.077,44.193 L60.427,40.242 L55.094,41.520 C54.669,41.622 54.254,41.758 53.854,41.923 L59.187,43.197 ZM39.042,42.162 L43.259,51.756 L47.470,42.180 L47.470,38.700 C46.141,39.091 44.736,39.302 43.283,39.302 C41.809,39.302 40.386,39.085 39.042,38.684 L39.042,42.162 ZM43.283,35.930 C49.473,35.930 54.530,30.998 54.740,24.858 L54.740,19.835 L47.958,15.850 C44.944,18.861 40.864,20.562 36.560,20.562 L31.815,20.562 L31.815,24.463 C31.815,30.786 36.959,35.929 43.283,35.930 ZM27.299,43.192 L32.646,41.910 C32.255,41.751 31.851,41.620 31.436,41.520 L26.090,40.239 L24.448,44.172 C25.351,43.763 26.303,43.430 27.299,43.192 ZM23.212,38.378 C23.207,38.326 23.202,38.273 23.202,38.220 C23.202,38.188 23.203,38.156 23.205,38.125 L23.205,36.089 C22.387,36.281 21.536,36.386 20.661,36.386 C19.781,36.386 18.926,36.280 18.105,36.087 L18.105,38.231 C18.105,38.272 18.103,38.312 18.100,38.353 L20.661,44.487 L23.212,38.378 ZM9.891,41.525 C6.109,42.428 3.468,45.774 3.468,49.662 L3.468,59.311 L6.840,59.311 L6.840,51.819 C6.840,50.888 7.596,50.133 8.527,50.133 C9.458,50.133 10.213,50.888 10.213,51.819 L10.213,59.311 L15.266,59.311 L15.266,58.448 C15.266,54.750 16.543,51.315 18.725,48.604 L15.236,40.248 L9.891,41.525 ZM20.661,11.214 C16.383,11.214 12.903,14.694 12.903,18.972 L12.903,19.390 L12.903,19.559 L17.726,19.559 C21.370,19.559 24.950,18.602 28.105,16.789 C27.160,13.571 24.180,11.214 20.661,11.214 ZM28.418,20.442 C25.100,22.075 21.442,22.931 17.726,22.931 L12.903,22.931 L12.903,25.256 C12.903,29.534 16.383,33.013 20.661,33.013 C24.938,33.013 28.418,29.534 28.418,25.256 L28.418,20.442 ZM26.578,34.676 L26.578,36.888 L32.222,38.241 C33.449,38.534 34.610,39.020 35.669,39.677 L35.669,37.196 C33.285,35.765 31.334,33.685 30.063,31.201 C29.174,32.602 27.982,33.792 26.578,34.676 ZM54.750,15.709 C54.750,9.386 49.606,4.242 43.283,4.242 C36.960,4.242 31.815,9.386 31.815,15.709 L31.815,17.189 L36.560,17.189 C40.347,17.189 43.913,15.525 46.345,12.623 C46.874,11.992 47.781,11.835 48.491,12.252 L54.750,15.929 L54.750,15.709 ZM56.487,31.231 C55.206,33.720 53.241,35.802 50.843,37.227 L50.843,37.227 L50.843,39.689 C51.906,39.027 53.075,38.536 54.308,38.241 L59.953,36.888 L59.953,34.676 C58.559,33.798 57.374,32.619 56.487,31.231 ZM73.628,19.389 L73.628,18.972 C73.628,14.694 70.147,11.214 65.870,11.214 C62.350,11.214 59.371,13.571 58.425,16.789 C61.581,18.602 65.161,19.559 68.804,19.559 L73.628,19.559 L73.628,19.389 ZM73.628,25.256 L73.628,22.931 L68.804,22.931 C65.093,22.931 61.438,22.077 58.123,20.447 C58.123,20.447 58.119,24.809 58.113,24.981 L58.113,25.256 C58.113,29.534 61.593,33.013 65.870,33.013 C70.147,33.013 73.628,29.534 73.628,25.256 ZM83.063,49.662 C83.063,45.774 80.422,42.428 76.640,41.525 L71.282,40.245 L67.782,48.624 C69.958,51.333 71.230,54.764 71.230,58.456 L71.230,59.311 L76.317,59.311 L76.317,51.819 C76.317,50.888 77.073,50.133 78.004,50.133 C78.935,50.133 79.690,50.888 79.690,51.819 L79.690,59.311 L83.063,59.311 L83.063,49.662 ZM43.222,70.057 C43.665,70.057 44.100,70.237 44.414,70.551 C44.727,70.864 44.908,71.299 44.908,71.743 C44.908,72.187 44.727,72.621 44.414,72.935 C44.100,73.249 43.665,73.429 43.222,73.429 C42.778,73.429 42.343,73.249 42.029,72.935 C41.715,72.621 41.535,72.187 41.535,71.743 C41.535,71.299 41.716,70.864 42.029,70.551 C42.343,70.237 42.778,70.057 43.222,70.057 Z"/>
</svg>