<?xml version="1.0" encoding="utf-8"?><svg viewBox="0 0 25 25" xmlns="http://www.w3.org/2000/svg" xmlns:xlink="http://www.w3.org/1999/xlink"><style>:root>svg{display:none}:root>svg:target{display:block}</style><svg viewBox="0 0 25 25" id="ic_search" xmlns="http://www.w3.org/2000/svg"><path d="M23.784 22.594l-5.812-6.082a9.925 9.925 0 0 0 2.313-6.377c0-5.469-4.424-9.919-9.86-9.919-5.437 0-9.861 4.45-9.861 9.919 0 5.47 4.424 9.92 9.861 9.92a9.72 9.72 0 0 0 5.649-1.795l5.856 6.127c.245.256.574.397.927.397.334 0 .651-.128.891-.361a1.3 1.3 0 0 0 .036-1.829zM10.425 2.804c4.018 0 7.288 3.288 7.288 7.331 0 4.043-3.27 7.332-7.288 7.332-4.019 0-7.288-3.289-7.288-7.332 0-4.043 3.269-7.331 7.288-7.331z"/></svg></svg>